<svg height="512" width="512" xmlns="http://www.w3.org/2000/svg"><path d="M257.002 250a15.001 15.001 0 01-14.425-19.122l12.28-42.979C233.595 167.375 222 141.81 222 115c0-31.474 15.602-60.809 43.931-82.6C293.092 11.507 328.986 0 367 0s73.908 11.507 101.069 32.4C496.398 54.191 512 83.526 512 115s-15.602 60.809-43.931 82.6C440.908 218.493 405.014 230 367 230a180.19 180.19 0 01-41.195-4.782l-63.538 23.827a14.97 14.97 0 01-5.265.955z" fill="#f5f5ff"/><path d="M468.069 197.6C496.398 175.809 512 146.474 512 115s-15.602-60.809-43.931-82.6C440.908 11.507 405.014 0 367 0v230c38.014 0 73.908-11.507 101.069-32.4z" fill="#e2e7fa"/><path d="M417 100H317c-8.284 0-15-6.716-15-15s6.716-15 15-15h100c8.284 0 15 6.716 15 15s-6.716 15-15 15zm0 60H317c-8.284 0-15-6.716-15-15s6.716-15 15-15h100c8.284 0 15 6.716 15 15s-6.716 15-15 15z" fill="#6b61b1"/><path d="M432 85c0-8.284-6.716-15-15-15h-50v30h50c8.284 0 15-6.716 15-15zm0 60c0-8.284-6.716-15-15-15h-50v30h50c8.284 0 15-6.716 15-15z" fill="#453d81"/><path d="M255.202 512c-32.859.001-64.855-17.037-82.433-47.481l-160-277.128C.081 165.415-3.29 139.813 3.278 115.303c6.568-24.511 22.288-44.997 44.264-57.685l34.641-20c8.097-4.675 17.53-5.917 26.559-3.496 9.031 2.42 16.578 8.212 21.253 16.309l49.999 86.602v-.001c4.675 8.097 5.917 17.528 3.497 26.56-2.42 9.029-8.211 16.577-16.308 21.252l-21.65 12.5 85 147.225 21.65-12.5c8.098-4.676 17.53-5.917 26.559-3.497 9.031 2.42 16.578 8.211 21.253 16.309l49.999 86.602c4.675 8.096 5.917 17.527 3.497 26.559-2.42 9.03-8.211 16.578-16.309 21.253l-34.64 19.999C287.621 507.906 271.306 512 255.202 512z" fill="#6ba7ff"/><path d="M349.993 431.48l-49.999-86.602c-4.675-8.098-12.222-13.889-21.253-16.309-9.028-2.42-18.461-1.179-26.559 3.497l-21.65 12.5-44.509-77.092-95.263 55 82.009 142.043c17.577 30.444 49.573 47.482 82.433 47.481 16.105 0 32.419-4.094 47.34-12.709l34.64-19.999c8.098-4.675 13.889-12.223 16.309-21.253 2.419-9.029 1.176-18.461-3.498-26.557z" fill="#347adf"/></svg>