<svg height="512" viewBox="0 0 511.996 511.996" width="512" xmlns="http://www.w3.org/2000/svg"><path d="M90.812 273.2h2.872a28.144 28.144 0 00-.424 4.894c0 9.571 4.717 17.358 10.515 17.358s10.516-7.787 10.516-17.358-4.718-17.358-10.516-17.358c-.36 0-12.45.091-12.963.095a6.192 6.192 0 00-6.185 6.185 6.193 6.193 0 006.185 6.184zm111.733 22.251c5.798 0 10.516-7.787 10.516-17.358 0-1.658-.143-3.303-.425-4.894h3.664a6.192 6.192 0 006.185-6.185 6.193 6.193 0 00-6.185-6.185c-.567-.004-13.396-.095-13.755-.095-5.798 0-10.515 7.787-10.515 17.358s4.717 17.359 10.515 17.359zm-48.989 46.335c6.993 0 13.985-2.661 19.309-7.984 2.93-2.929 2.93-7.678.001-10.606s-7.678-2.931-10.606-.001c-4.798 4.798-12.605 4.799-17.405 0a7.498 7.498 0 00-10.606.001 7.498 7.498 0 00.001 10.606c5.321 5.323 12.313 7.984 19.306 7.984z"/><path d="M379.613 0C307.79 0 249.336 58.319 249.106 130.089c-22.033-19.774-50.494-30.803-80.778-30.803h-29.55c-26.924 0-52.418 8.641-73.726 24.99-20.627 15.826-35.869 38.248-42.921 63.136a7.5 7.5 0 0014.432 4.088c12.881-45.462 54.913-77.214 102.215-77.214h29.55c32.508 0 62.621 14.501 82.918 39.837 3.541 19.299 11.341 37.125 22.386 52.467.603 4.556.925 9.228.925 13.925v40.322a25.552 25.552 0 00-3.641 1.111V245.47a7.5 7.5 0 00-5.813-7.308c-30.22-6.972-50.789-48.17-50.99-48.579a7.499 7.499 0 00-12.039-2.006c-31.453 31.451-119.966 49.975-158.595 51.084a7.5 7.5 0 00-7.284 7.497v15.787a25.508 25.508 0 00-3.638-1.109v-40.319c0-.469-.002-.946.016-1.416a7.501 7.501 0 00-7.221-7.77c-4.14-.158-7.617 3.082-7.77 7.221a55.92 55.92 0 00-.025 1.964v41.251C10.3 264.573 4.791 270.81 2.897 279.2a42.001 42.001 0 00-1.027 9.247c0 13.178 6.132 24.945 15.685 32.618v64.823a7.5 7.5 0 007.5 7.5h94.708v4.652a290.63 290.63 0 00-21.701 7.151c-13.487 5.042-25.844 10.903-36.728 17.42-8.025 4.808-13.448 12.905-14.881 22.23-2.094 13.812-5.056 35.251-7.272 58.956a7.504 7.504 0 007.468 8.199h160.59c4.143 0 7.5-3.358 7.5-7.5s-3.357-7.5-7.5-7.5h-28.396c-1.46-8.669-3.386-16.204-5.753-22.509l7.342-8.691 2.572 2.472a7.502 7.502 0 0012.255-2.866l15.621-43.383c9.889 4.049 19.023 8.557 27.206 13.46 4.19 2.51 7.019 6.744 7.76 11.617 1.496 9.812 4.166 28.456 6.371 49.899H237.24c-4.143 0-7.5 3.358-7.5 7.5s3.357 7.5 7.5 7.5h23.25a7.5 7.5 0 007.468-8.199c-2.357-25.199-5.575-47.757-7.283-58.959-1.416-9.308-6.84-17.409-14.879-22.226-10.881-6.52-23.239-12.382-36.722-17.418a291.704 291.704 0 00-21.712-7.156v-4.65h94.702a7.5 7.5 0 007.5-7.5v-64.818c9.557-7.673 15.691-19.442 15.691-32.624a42.06 42.06 0 00-1.027-9.246c-1.895-8.393-7.408-14.628-14.669-17.433v-36.875c23.439 22.375 55.17 36.133 90.056 36.133 71.965 0 130.513-58.548 130.513-130.513S451.578 0 379.613 0zM130.851 238.622c23.45-6.719 54.135-17.825 74.518-33.964 7.991 13.182 25.704 37.851 50.549 46.445v54.712c0 40.017-32.556 72.572-72.572 72.572h-3.436l-.048-.002h-52.598l-.048.002h-3.447c-40.017 0-72.572-32.556-72.572-72.572v-21.231h.006c0-.045-.006-.089-.006-.135v-31.148c22.761-1.519 53.066-7.061 79.654-14.679zM17.528 282.504c1.772-7.852 8.868-7.47 10.269-7.312 1.397.156 8.334 1.339 8.398 9.286v21.337c0 2.869.143 5.705.414 8.504-11.363-3.119-19.739-13.533-19.739-25.873 0-2.008.222-4.007.658-5.942zm15.027 46.254a41.47 41.47 0 007.062 1.317c5.753 19.924 18.403 36.951 35.189 48.312H32.555zm89.507 120.682l-11.773-32.696a277.945 277.945 0 0110.974-3.514c2.753 8.901 9.094 16.237 17.323 20.322zm-60.781-2.335c.75-4.883 3.579-9.12 7.76-11.625 8.184-4.9 17.317-9.407 27.206-13.458l15.62 43.38a7.5 7.5 0 0012.255 2.866l2.571-2.472 7.34 8.689c-2.362 6.296-4.285 13.832-5.745 22.51H54.92c2.059-20.055 4.543-37.898 6.361-49.89zm82.232 49.891c1.156-6.28 2.573-11.755 4.237-16.373h11.613c1.656 4.612 3.087 10.135 4.245 16.373zm17.428-31.372h-14.759l-8.654-10.245 16.033-15.415 16.033 15.415zm24.121-16.184l-16.526-15.888c8.23-4.085 14.571-11.422 17.324-20.324a277.47 277.47 0 0110.975 3.515zm-12.702-46.177c0 10.362-8.428 18.793-18.789 18.798h-.02c-10.325-.005-18.727-8.38-18.784-18.694l-.005-.115v-9.864h37.598zm102.202-24.875h-42.256c16.786-11.361 29.436-28.388 35.189-48.312a41.528 41.528 0 007.067-1.317zm15.692-89.942c0 12.344-8.382 22.762-19.751 25.876.271-2.8.414-5.637.414-8.507v-21.231h.006c0-8.047 7-9.235 8.403-9.392 1.407-.157 8.496-.538 10.27 7.312.436 1.935.658 3.934.658 5.942zm153.469-61.892l-3.894-6.745a7.5 7.5 0 00-12.99 7.5l3.905 6.763a114.631 114.631 0 01-43.63 11.703v-18.27c0-4.142-3.357-7.5-7.5-7.5s-7.5 3.358-7.5 7.5v18.27a114.636 114.636 0 01-43.63-11.703l3.905-6.763a7.5 7.5 0 00-12.99-7.5l-3.895 6.746a116.47 116.47 0 01-31.932-31.932l6.745-3.895a7.5 7.5 0 00-7.5-12.99l-6.764 3.905a114.654 114.654 0 01-11.703-43.63h18.27c4.143 0 7.5-3.358 7.5-7.5s-3.357-7.5-7.5-7.5h-18.27a114.668 114.668 0 0111.703-43.63l6.764 3.905a7.497 7.497 0 0010.245-2.745 7.5 7.5 0 00-2.745-10.245l-6.745-3.895a116.456 116.456 0 0131.932-31.932l3.895 6.746a7.498 7.498 0 0010.245 2.745 7.5 7.5 0 002.745-10.245l-3.905-6.763a114.631 114.631 0 0143.63-11.703V33.52c0 4.142 3.357 7.5 7.5 7.5s7.5-3.358 7.5-7.5V15.25a114.631 114.631 0 0143.63 11.703l-3.905 6.763a7.5 7.5 0 0012.99 7.5l3.894-6.745a116.456 116.456 0 0131.932 31.932l-6.745 3.894a7.5 7.5 0 007.5 12.99l6.763-3.905a114.668 114.668 0 0111.703 43.63h-18.269c-4.143 0-7.5 3.358-7.5 7.5s3.357 7.5 7.5 7.5h18.269a114.631 114.631 0 01-11.703 43.63l-6.763-3.905a7.5 7.5 0 00-7.5 12.99l6.745 3.894a116.46 116.46 0 01-31.932 31.933z"/><path d="M379.613 67.327c-12.776 0-23.171 10.395-23.171 23.171v16.844h-33.985c-12.776 0-23.171 10.395-23.171 23.171s10.395 23.171 23.171 23.171h57.158c12.775-.001 23.169-10.395 23.169-23.171V90.498c0-12.776-10.394-23.171-23.171-23.171zm-65.327 63.186c0-4.505 3.665-8.171 8.171-8.171h33.985v8.171c0 2.875.531 5.628 1.492 8.171h-35.478c-4.505 0-8.17-3.666-8.17-8.171zm73.498 0c0 4.505-3.665 8.171-8.171 8.171s-8.171-3.666-8.171-8.171V90.498c0-4.505 3.665-8.171 8.171-8.171s8.171 3.666 8.171 8.171z"/></svg>