<svg height="512" width="512" xmlns="http://www.w3.org/2000/svg"><circle cx="256" cy="256" fill="#9dc6fb" r="248.5"/><path d="M502.819 284.889l-14.165-24.535a10.101 10.101 0 00-11.635-4.629l-19.496 5.815a10.12 10.12 0 01-8.504-1.293 133.203 133.203 0 00-14.508-8.397 10.118 10.118 0 01-5.353-6.709l-4.706-19.765a10.102 10.102 0 00-9.827-7.762h-79.759a10.101 10.101 0 00-9.827 7.762l-4.706 19.765a10.12 10.12 0 01-5.353 6.709 133.203 133.203 0 00-14.508 8.397 10.12 10.12 0 01-8.504 1.293l-19.496-5.815a10.1 10.1 0 00-11.635 4.63l-39.879 69.074a10.1 10.1 0 001.809 12.391l14.76 13.955a10.072 10.072 0 013.133 7.956 134.375 134.375 0 000 16.878c.188 2.986-.959 5.9-3.133 7.956l-14.76 13.955a10.103 10.103 0 00-1.809 12.391l39.879 69.074a10.103 10.103 0 0011.635 4.63l19.496-5.815a10.12 10.12 0 018.504 1.293 133.297 133.297 0 0014.508 8.397 10.164 10.164 0 014.199 3.898c97.611-25.588 171.776-109.045 183.64-211.499z" fill="#80b4fb"/><circle cx="256" cy="256" fill="#ecf4ff" r="216.175"/><path d="M472.16 257.174l-14.638 4.366a10.12 10.12 0 01-8.504-1.293 133.203 133.203 0 00-14.508-8.397 10.118 10.118 0 01-5.353-6.709l-4.706-19.765a10.102 10.102 0 00-9.827-7.762h-79.759a10.101 10.101 0 00-9.827 7.762l-4.706 19.765a10.12 10.12 0 01-5.353 6.709 133.203 133.203 0 00-14.508 8.397 10.12 10.12 0 01-8.504 1.293l-19.496-5.815a10.1 10.1 0 00-11.635 4.63l-39.879 69.074a10.1 10.1 0 001.809 12.391l14.76 13.955a10.072 10.072 0 013.133 7.956 134.375 134.375 0 000 16.878c.188 2.986-.959 5.9-3.133 7.956l-14.76 13.955a10.103 10.103 0 00-1.809 12.391l33.047 57.24c.666.006 1.328.025 1.995.025 118.998-.001 215.527-96.153 216.161-215.002z" fill="#cbe2ff"/><path d="M256 124.679c-8.926 0-16.163 7.236-16.163 16.163V256h32.325V140.842c.001-8.927-7.236-16.163-16.162-16.163z" fill="#dd5790"/><path d="M272.163 206.027A52.307 52.307 0 00256 203.472c-5.638 0-11.067.903-16.163 2.555V256h32.325v-49.973z" fill="#da387d"/><path d="M154.984 256c0 8.926 7.236 16.163 16.163 16.163H256v-32.325h-84.854c-8.926-.001-16.162 7.236-16.162 16.162z" fill="#dd5790"/><path d="M256 239.837h-49.973A52.307 52.307 0 00203.472 256c0 5.638.903 11.067 2.555 16.163H256z" fill="#da387d"/><circle cx="256" cy="256" fill="#f6e266" r="30.305"/><path d="M486.873 372.169c0-7.291-.708-14.418-2.043-21.325l19.67-18.596-30.305-52.49-26.002 7.755a112.178 112.178 0 00-36.873-21.342l-6.27-26.334h-60.61l-6.27 26.334a112.178 112.178 0 00-36.873 21.342l-26.002-7.755-30.305 52.49 19.67 18.596a112.274 112.274 0 000 42.65l-19.67 18.596 30.305 52.49 26.002-7.755a112.178 112.178 0 0036.873 21.342l6.27 26.334h60.61l6.27-26.334a112.178 112.178 0 0036.873-21.342l26.002 7.755 30.305-52.49-19.67-18.596a112.192 112.192 0 002.043-21.325z" fill="#4073c8"/><path d="M486.873 372.169c0-7.212-.695-14.264-2.002-21.101-12.903 71.172-75.186 125.148-150.078 125.148-.631 0-1.258-.016-1.887-.024 1.734.7 3.489 1.36 5.265 1.974l6.27 26.334h60.61l6.27-26.334a112.178 112.178 0 0036.873-21.342l26.002 7.755 30.305-52.49-19.67-18.596a112.255 112.255 0 002.042-21.324z" fill="#30579d"/><circle cx="374.745" cy="372.169" fill="#ecf4ff" r="79.803"/><path d="M365.149 406.009a16.113 16.113 0 01-11.429-4.734l-16.163-16.163c-6.312-6.312-6.312-16.546 0-22.858 6.313-6.312 16.545-6.312 22.858 0l4.734 4.734 23.927-23.927c6.313-6.312 16.545-6.312 22.858 0 6.312 6.312 6.312 16.546 0 22.858l-35.356 35.356a16.115 16.115 0 01-11.429 4.734z" fill="#c8ea73"/><path d="M510.995 328.498l-6.413-11.107C509.502 297.421 512 276.785 512 256c0-68.379-26.629-132.666-74.981-181.019C388.666 26.629 324.379 0 256 0c-35.493 0-69.855 7.128-102.132 21.187-31.177 13.579-58.971 32.959-82.61 57.602a7.5 7.5 0 1010.825 10.383C127.965 41.341 189.73 15 256 15c132.888 0 241 108.112 241 241a242.93 242.93 0 01-3.639 41.954l-12.67-21.945a7.466 7.466 0 00-1.751-2.044c.476-5.971.73-11.985.73-17.964 0-59.746-23.265-115.915-65.51-158.16C371.915 55.596 315.746 32.33 256 32.33S140.085 55.596 97.84 97.84C55.595 140.086 32.33 196.254 32.33 256c0 52.957 18.837 104.321 53.041 144.632a7.48 7.48 0 005.723 2.647 7.5 7.5 0 005.715-12.352C64.902 353.324 47.33 305.406 47.33 256c0-115.061 93.609-208.67 208.67-208.67S464.67 140.939 464.67 256c0 6.339-.301 12.718-.873 19.033l-13.878 4.139a118.916 118.916 0 00-32.237-18.659l-5.336-22.413a7.5 7.5 0 00-7.296-5.763h-60.61a7.5 7.5 0 00-7.296 5.763l-5.336 22.413a118.972 118.972 0 00-32.237 18.659l-11.371-3.391A37.574 37.574 0 00293.804 256c0-11.895-5.527-22.518-14.142-29.453v-85.706c0-13.047-10.615-23.663-23.663-23.663s-23.663 10.615-23.663 23.663v85.706a38.1 38.1 0 00-5.79 5.79h-55.401c-13.047 0-23.663 10.615-23.663 23.663s10.615 23.663 23.663 23.663h55.401c6.935 8.615 17.558 14.142 29.453 14.142.869 0 1.728-.04 2.582-.098l-20.087 34.791a7.5 7.5 0 001.343 9.2l16.739 15.826c-.97 6.165-1.46 12.418-1.46 18.645s.491 12.481 1.46 18.646l-16.739 15.825a7.5 7.5 0 00-1.343 9.2l28.025 48.542c-3.499.174-7.005.289-10.521.289-49.6 0-97.663-17.695-135.333-49.826a7.5 7.5 0 00-9.734 11.412C151.315 460.701 202.835 479.67 256 479.67c18.449 0 36.742-2.246 54.426-6.677a118.745 118.745 0 0021.382 10.832l.221.929C307.591 492.876 282.05 497 256 497 123.112 497 15 388.888 15 256c0-50.935 15.693-99.62 45.383-140.793a7.5 7.5 0 00-12.167-8.773C16.673 150.177 0 201.897 0 256c0 68.379 26.629 132.666 74.981 181.019C123.334 485.371 187.621 512 256 512c27.222 0 53.927-4.247 79.515-12.605l1.629 6.843a7.5 7.5 0 007.296 5.763h60.61a7.5 7.5 0 007.296-5.763l5.336-22.413a118.972 118.972 0 0032.237-18.659l22.132 6.601a7.501 7.501 0 008.639-3.437l30.305-52.49a7.5 7.5 0 00-1.343-9.2l-16.739-15.825c.97-6.164 1.46-12.418 1.46-18.646s-.491-12.481-1.46-18.645l16.739-15.825a7.502 7.502 0 001.343-9.201zM247.337 140.841c0-4.776 3.886-8.663 8.663-8.663s8.663 3.886 8.663 8.663v78.367c-2.784-.655-5.681-1.013-8.663-1.013s-5.879.358-8.663 1.013zm-76.191 123.822c-4.776 0-8.663-3.886-8.663-8.663 0-4.776 3.886-8.663 8.663-8.663h48.062a37.77 37.77 0 00-1.013 8.663c0 2.981.358 5.879 1.013 8.663zM233.195 256c0-12.575 10.23-22.805 22.805-22.805s22.805 10.23 22.805 22.805-10.23 22.805-22.805 22.805-22.805-10.23-22.805-22.805zm246.483 89.394a7.5 7.5 0 00-2.211 6.874c1.266 6.544 1.907 13.24 1.907 19.901s-.642 13.357-1.907 19.901a7.5 7.5 0 002.211 6.874l15.365 14.526-24.381 42.229-20.325-6.062a7.496 7.496 0 00-7.062 1.525c-10.167 8.833-21.743 15.534-34.407 19.916a7.496 7.496 0 00-4.843 5.35L399.126 497h-48.762l-4.898-20.571a7.498 7.498 0 00-4.843-5.35c-12.664-4.382-24.24-11.083-34.407-19.916a7.492 7.492 0 00-7.062-1.525l-20.325 6.062-24.381-42.229 15.365-14.526a7.498 7.498 0 002.211-6.873c-1.265-6.546-1.907-13.242-1.907-19.902s.642-13.355 1.907-19.901a7.5 7.5 0 00-2.211-6.874l-15.365-14.526 24.381-42.229 20.325 6.062a7.503 7.503 0 007.062-1.525c10.167-8.833 21.743-15.534 34.407-19.916a7.498 7.498 0 004.843-5.351l4.898-20.571h48.762l4.898 20.571a7.501 7.501 0 004.843 5.351c12.664 4.382 24.24 11.083 34.407 19.916a7.497 7.497 0 007.062 1.525l20.325-6.062 24.381 42.229z"/><path d="M450.238 345.152a7.499 7.499 0 00-5.416 9.119 72.556 72.556 0 012.228 17.898c0 39.867-32.434 72.3-72.3 72.3-39.872 0-72.31-32.434-72.31-72.3s32.438-72.3 72.31-72.3c21.66 0 42 9.595 55.805 26.324a7.5 7.5 0 0011.57-9.548c-16.665-20.194-41.222-31.776-67.375-31.776-48.143 0-87.31 39.163-87.31 87.3 0 48.138 39.167 87.3 87.31 87.3 48.137 0 87.3-39.163 87.3-87.3 0-7.323-.906-14.59-2.692-21.602a7.5 7.5 0 00-9.12-5.415z"/><path d="M383.772 337.759l-18.633 18.633c-9.265-8.663-23.851-8.475-32.886.56-9.225 9.226-9.225 24.238 0 33.464l16.163 16.163c4.47 4.469 10.412 6.93 16.732 6.93s12.262-2.461 16.732-6.931l35.356-35.355c9.225-9.226 9.225-24.238-.001-33.465-9.225-9.223-24.236-9.224-33.463.001zm22.858 10.606c3.378 3.377 3.378 8.874 0 12.251l-35.355 35.355c-1.637 1.636-3.812 2.538-6.126 2.538s-4.49-.901-6.126-2.537l-16.162-16.163c-3.378-3.378-3.378-8.874-.001-12.251 1.689-1.689 3.908-2.533 6.126-2.533s4.437.844 6.125 2.533l4.734 4.734a7.503 7.503 0 0010.607 0l23.926-23.927c3.379-3.376 8.875-3.376 12.252 0zM263.5 92.354V72.15a7.5 7.5 0 00-15 0v20.203a7.5 7.5 0 0015 .001zm-89.316 29.426a7.5 7.5 0 006.488-11.251L170.57 93.032a7.5 7.5 0 00-12.99 7.5l10.102 17.497a7.497 7.497 0 006.502 3.751zm-63.656 58.892a7.499 7.499 0 0010.245-2.745 7.5 7.5 0 00-2.745-10.245l-17.497-10.102a7.5 7.5 0 00-7.5 12.99zM64.65 256a7.5 7.5 0 007.5 7.5h20.203a7.5 7.5 0 000-15H72.15a7.5 7.5 0 00-7.5 7.5zm269.423-135.226a7.499 7.499 0 0010.245-2.745l10.102-17.497a7.5 7.5 0 00-12.99-7.5l-10.102 17.497a7.5 7.5 0 002.745 10.245zm63.656 60.904a7.465 7.465 0 003.743-1.006l17.497-10.102a7.5 7.5 0 00-7.5-12.99l-17.497 10.102a7.5 7.5 0 003.757 13.996zM96.789 355.426a7.465 7.465 0 003.743-1.006l17.497-10.102a7.5 7.5 0 00-7.5-12.99L93.032 341.43a7.5 7.5 0 003.757 13.996zm67.279 67.294a7.499 7.499 0 006.502-3.751l10.102-17.497a7.5 7.5 0 00-12.99-7.5l-10.102 17.497a7.5 7.5 0 006.488 11.251z"/></svg>